<?xml version="1.0" encoding="utf-8"?>
<!-- Generator: Adobe Illustrator 16.0.0, SVG Export Plug-In . SVG Version: 6.00 Build 0)  -->
<!DOCTYPE svg PUBLIC "-//W3C//DTD SVG 1.1//EN" "http://www.w3.org/Graphics/SVG/1.1/DTD/svg11.dtd">
<svg version="1.1" xmlns="http://www.w3.org/2000/svg" xmlns:xlink="http://www.w3.org/1999/xlink" x="0px" y="0px"
	 width="1414.431px" height="1032.1px" viewBox="0 0 1414.431 1032.1" enable-background="new 0 0 1414.431 1032.1"
	 xml:space="preserve">
<g id="land_masses">
	<path fill="#F9EDCF" stroke="#929497" stroke-width="3" stroke-miterlimit="10" d="M-46.735,3560.469
		c-0.004,0.007-0.006,0.012-0.006,0.012S-46.736,3560.471-46.735,3560.469z"/>
	<path fill="#F9EDCF" stroke="#929497" stroke-width="2.6836" stroke-miterlimit="10" d="M2528.237,1192.518v-0.002V1192.518z"/>
	<path fill="#F9EDCF" stroke="#929497" stroke-width="2.6836" stroke-miterlimit="10" d="M-195.886,2880.554
		c0,0,35.516-42.997,65.423,0l5.608,14.021l9.351,11.215v13.084c0,0-23.371,9.344-32.716,33.648c0,0-7.48,14.958-28.039,0.933
		l-30.743-12.892"/>
	<path fill="#F9EDCF" stroke="#929497" stroke-width="2.6836" stroke-miterlimit="10" d="M-206.998,1880.797
		c9.016,5.096,17.45,9.691,20.454,10.818c7.476,2.804,37.384,19.628,39.255,23.365c1.872,3.737,10.283,12.15-2.804,20.562
		c-13.085,8.413-35.516,33.65-35.516,33.65s-10.284,20.562-8.413,32.711c1.872,12.149,2.805,37.386-2.804,48.602
		c-5.608,11.218,7.48,22.435,7.48,22.435l54.206,53.273c0,0,25.233,30.845,29.906,58.885c0,0,3.74,4.671,10.284,11.213
		c6.542,6.54,16.822,14.953,33.647,24.298c16.824,9.353,22.43,18.696,23.365,22.435c0.936,3.742-10.28,15.89-10.28,15.89
		l-47.666,89.733c0,0-3.742,14.958,1.866,21.5c5.613,6.54,15.893,15.886,15.893,15.886l2.803,40.195c0,0,12.15,20.563-0.935,47.672
		c0,0-8.412,18.696,3.739,38.318c12.149,19.629,17.757,35.525,17.757,35.525l1.869,16.825c0,0,16.822,24.304,23.367,31.779
		c6.543,7.479,17.76,23.371,10.28,32.716c-7.474,9.34-22.433,4.671-22.433,4.671s-14.954,21.499-31.778,23.365
		c-16.82,1.87-3.737,8.422-3.737,8.422s31.778,40.19,13.087,79.444c0,0-0.938,8.416,4.67,13.088
		c5.607,4.67,34.582,47.664,138.33,56.076h54.21c0,0,43.929,0.006,75.707,27.113c31.778,27.108,88.789,61.686,88.789,61.686
		s16.822,16.825,4.675,27.109c-12.149,10.277-33.644,23.364-64.489,23.364c0,0-14.96-4.669-25.237,5.614
		c-10.278,10.279-17.758,10.273-42.995,12.145c-25.234,1.871-22.433,8.411-22.433,8.411s-18.69,33.656-56.077,33.656
		c0,0-43.928,16.829-61.686,39.263c-17.757,22.427-0.933,28.979-48.603,26.17c0,0-66.355,44.86-89.721,82.247
		c0,0-3.74,41.133-28.974,45.804l-1.871,9.346c0,0-10.279,41.129-22.428,56.087l-2.804,7.479c0,0,15.886,44.861-36.454,33.646
		l6.541-252.361c0,0,17.758,30.851,42.06-17.753l28.039-49.542c0,0,16.824-38.311,63.557-53.271c0,0,57.013-26.17,9.345-53.277
		c0,0-21.495-7.486-22.428-51.402c-0.938-43.917,2.804-42.99,2.804-42.99s3.737-30.845-33.65-19.623l-10.278,12.15
		c0,0,9.345,12.148-40.191,9.345c0,0-29.633-1.909-51.304,17.509L-206.998,1880.797z"/>
	<path fill="#F9EDCF" stroke="#929497" stroke-width="2.6836" stroke-miterlimit="10" d="M1127.554,1340.146l-54.206-58.886
		l-14.021-9.345l-8.413-11.217l-2.804-10.278l-25.232-18.695c0,0-41.139-61.681-19.645-108.412c0,0,1.872-4.675,8.412-3.741
		c6.542,0.938,14.016,1.869,14.016,1.869l14.026-3.737l4.67-7.479c0,0,0.939-18.691,6.541-18.691c5.609,0,13.083,0,13.083,0
		l9.351,3.736c0,0,11.211,25.239,18.69,27.104c7.479,1.871,18.697,0,25.238-5.603c6.541-5.608,19.628-5.608,19.628-5.608
		l12.15-3.743l3.758-5.608c0,0,8.413-3.736,12.149,1.865c3.742,5.608,10.284,12.156,10.284,31.779c0,19.628,0,39.259,0,39.259
		s11.21,2.803,16.824,8.411l4.67,4.676c0,0,13.087-6.542,28.041,17.753l0.939,4.675l23.366,0.938c0,0,3.731,2.805,5.602,5.608
		c1.871,2.8,28.039,0.934,41.126,27.104c0,0,26.17,4.675,2.804,34.582c0,0,6.541,38.319-23.366,43.929l-1.865,16.824l3.737,17.758
		c0,0-14.021,7.474-14.021,22.433c0,14.953,1.871,57.01,1.871,57.01v12.154l-0.938,46.732c0,0,11.216,22.428,11.216,41.123
		c0,18.692-0.938,26.166-0.938,26.166s4.675,9.346,1.871,16.824c-2.798,7.475-2.798,15.887-2.798,15.887s10.273,6.541-26.179,54.211
		l-26.17,38.318l-6.546,12.151c0,0-25.227,21.493-28.968,31.777c0,0-9.351,11.218-26.176,0.933c0,0-28.035-28.036-35.515-32.71
		c-7.473-4.672-17.757-14.955-17.757-14.955l-13.083-8.413c0,0-6.542-10.276-6.542-14.014c0-3.742-6.546-10.283-6.546-10.283
		l-14.021-7.479c0,0,0.934-25.238,10.283-38.32c9.346-13.082,23.366-22.433,23.366-22.433s10.278-6.541,11.211-18.69
		c0.939-12.15,3.743-23.365,3.743-23.365s0.933-6.546,0.933-9.352c0-2.798,4.676-12.144,4.676-12.144l-12.15-0.938
		c0,0-3.742,1.871,0-12.15c3.738-14.02,10.284-28.04,10.284-28.04l5.603-6.542l1.872-18.695l9.345-14.021l-4.67-80.37
		L1127.554,1340.146z"/>
	<path fill="#FFFFFF" stroke="#929497" stroke-width="2.6836" stroke-miterlimit="10" d="M198.368-635.286v-0.006V-635.286z"/>
	<path fill="#AF3E77" stroke="#929497" stroke-width="3" stroke-miterlimit="10" d="M830.192-2948.29
		c36.842,10.588,70.216,29.173,102.164,49.983c21.594,17.762,43.293,35.397,65.676,52.19c27.022,19.724,51.345,43.09,80.714,59.641
		c5.411,3.042,10.164,6.8,11.466,13.453c0.714,6.383-0.896,11.714-6.799,15.11c-9.931,4.088-20.856,2.553-30.988,5.497
		c-2.253,0.357-4.533,0.393-6.804,0.225c-13.072-3.877-25.831-2.919-38.283,2.707c-2.324,0.157-4.573-0.18-6.768-0.938
		c-19.638-9.596-40.419-1.61-60.514-2.592c-19.214-0.94-39.071-1.62-58.787,0.063c-16.917,1.445-34.25-1.347-50.342-10.722
		c-14.084-8.204-30.859-8.235-45.634-0.486c-7.218,3.788-14.781,49.139-10.921,56.728c5.683,11.179,12.241,6.735,17.176-0.286
		c8.24-11.729,17.698-16.218,30.876-8.206c6.366,6.924,9.486,18.017,22.034,16.922c36.86-3.216,73.907,4.159,110.726-1.985
		c37.074,2.04,74.179,2.249,111.284,2.234c6.259,0.049,12.532-0.406,18.792-0.02c18.019-0.698,35.98,5.759,54.031,0.423
		c2.311-0.247,4.658-0.322,6.982-0.345c9.003,0.174,18.055-0.267,27.058,0.148c15.088,0.691,22.253-7.557,24.239-21.079
		c4.698-32.028-3.828-40.416-29.021-33.037c-6.442,1.882-13.554,2.039-18.676-4.198c-1.686-5.755,2.606-8.369,6.354-10.441
		c14.383-7.966,16.828-18.47,7.049-31.478c-7.905-10.515-4.8-19.626,2.525-28.598c8.695-9.774,18.667-17.773,31.725-20.682
		c13.276-2.963,23.109-10.646,31.081-21.232c9.245-8.24,17.543-17.653,28.888-23.307c21.482-3.796,39.755,5.073,57.868,14.647
		c7.209,7.762,5.662,13.366-4.3,16.64c-7.201,2.366-14.651,4.087-21.013,8.451c-19.746,14.249-19.621,19.563,2.061,30.487
		c22.213,11.199,45.684,15.749,70.667,11.605c20.232-3.36,27.42-7.251,48.014-8.255c2.347,0.286,4.435,1.166,6.304,2.606
		c2.908,4.079,3.163,8.503,1.767,13.148c-3.083,9.261-0.469,8.529-6.858,13.99c-2.471-0.285,0.817,0.553,1.169,0.348
		c7.218-4.193,10.662,1.071,14.08,6.21c1.423,4.595,1.249,8.985-1.633,13.028c-1.24,0.893-2.855,2.239-3.961,1.802
		c-33.107-13.019-59.362-0.313-83.133,21.914c-7.963,0.888-11.474-6.276-17.149-9.545c-5.474-3.155-11.373-5.432-16.863-1.185
		c-6.55,5.065-1.816,10.779,0.285,16.227c10.386,26.883,8.945,33.558-11.064,46.578c15.869,2.447,31.769,0.195,44.685,9.902
		c4.314,3.083,9.351,4.113,14.455,4.961c18.042,4.292,36.481,7.834,47.567,25.252c1.726,6.013,1.552,11.749-2.444,16.925
		c-15.874,6.465-29.973-4.207-45.132-4.607c-19.835-4.253-39.781-12.809-59.131,1.62c-14.254-4.729-28.374,8.666-47.08-4.338
		c8.352,17.864,18.63,28.977,16.935,43.935c-1.802,10.307-9.065,17.872-13.317,26.96c-6.255,13.424,2.637,31.102-11.76,42.209
		c-7.45,4.676-16.257-1.267-23.97,2.784c17.6,18.645,17.011,20.366-12.63,34.286c12.411,12.309,32.344-1.001,42.814,13.45
		c4.024,9.717,4.158,19.363-0.294,28.958c-11.702,13.626-30.476,2.066-43.159,12.125c-12.175,10.521-2.632,26.693-9.98,38.497
		c-2.829,3.179-6.384,4.784-10.587,5.158c-3.054,0.008-6.107,0.012-9.161,0.02c1.908,0.169,3.816,0.343,5.722,0.552
		c17.358,10.796,6.567,22.47,1.044,33.998c-1.78,3.15-4.078,5.922-6.674,8.419c-6.219,4.846-10.859,10.941-13.808,18.301
		c-0.228,30.163-6.595,60.577,4.322,90.155c4.801,15.097-2.24,26.616-11.872,36.904c-15.021,16.047-30.707,31.451-46.51,46.724
		c-8.61,6.572-17.56,12.728-25.799,19.813c-21.277,19.39-48.455,27.884-73.715,39.96c-2.24,0.418-4.47,0.359-6.705-0.037
		c-12.238-5.781-24.345-6.254-36.985-0.592c-15.307,6.861-31.733,9.251-48.401,9.895c-39.232,1.517-72.594,17.641-102.98,41.235
		c-28.254,1.736-53.545,13.96-79.792,22.739c-1.94,0.653-3.957,1.045-5.969,1.286c-1.918,0.124-3.863-0.009-5.765-0.339
		c-4.3-0.947-8.609-2.48-12.995-0.188c-4.162,3.946-7.592,9.352-14.709,7.229c-10.818-4.445-19.211-2.936-28.638,5.63
		c-15.628,14.191-30.497,12.589-46.009-1.892c-1.597-1.49-2.668-5.168-4.305-4.935c-21.812,3.071-43.578,7.612-65.252-0.75
		c-12.455,20.403-5.193,42.544-4.907,63.86c0.195,14.267,12.781,12.001,22.507,12.045c16.654,0.072,33.268,0.331,49.949-0.937
		c15.066-1.15,30.141,2.365,45.291,2.936c7.098,0.26,13.282,3.148,16.511,10.27c8.027,20.214,6.309,42.062,10.671,62.888
		c0.287,8.753,0.68,17.511,0.193,26.259c-0.143,36.972-24.417,62.914-43.427,90.539c-15.285,22.223-30.426,43.336-30.743,71.551
		c-0.049,4.532-1.348,9.086-3.359,13.147c-23.994,48.356-29.895,101.24-37.475,153.518c-2.967,20.47-13.104,38.77-14.714,59.318
		c-3.439,10.476-3.449,22.263-11.444,31.042c-5.357,7.104-6.647,14.273-0.23,21.555c18.916,17.349,16.573,41.458,20.401,63.614
		c3.752,18.041,24.913,40.713,14.616,55.669l0.039,1.513c1.657,27.536-22.947,47.999-20.3,75.794
		c0.088,3.667-0.021,7.3-0.115,10.958c-0.209,11.159,0.002,22.318-0.954,33.445c-2.847,18.712-9.215,36.292-17.171,53.348
		c-16.258,28.764-36.985,52.156-69.311,64.311c-20.444,7.689-34.09,24.267-43.524,43.949c-14.792,16.841-24.027,37.581-38.13,54.929
		c-23.094,15.426-34.719,39.369-46.585,63.105c-2.589,4.304-5.685,8.24-8.884,12.119c-9.475,9.739-7.508,21.82-6.913,33.602
		c-0.351,1.667-0.761,3.339-1.13,5.017c-0.904,1.432-1.842,2.868-2.76,4.319c-2.819,1.95-5.879,3.427-9.135,4.48
		c-16.998,5.017-26.165,25.295-47.765,23.556c-3.909-0.314,1.652,20.332-10.875,25.74c-10.44,4.523-21.264,7.181-32.717,8.03
		c-38.822,2.867-40.096,5.32-23.848,42.517c17.679,26.626-5.666,56.234-1.431,86.503l0.005,1.892c0,0,0,0,0,0.006
		c0,0.152,0.357,2.81,2.856,35.274c2.856,37.171-30.431,59.091-39.009,64.81c-8.576,5.718-5.683,18.109-5.683,18.109
		s10.5,17.155,22.89,23.832c12.396,6.672,3.823,34.31,3.823,34.31c-4.768,26.688,20.85,54.331,20.85,54.331l12.272,8.575
		c0,0,0,0,0,6.674c0,6.671,12.513,21.923,12.513,21.923c66.723,34.31,23.892,95.313,20.079,105.796
		c-3.811,10.483-6.641,23.827,2.893,38.125c9.527,14.293,33.376,68.62,48.625,112.469c15.25,43.845-3.805,86.734-10.478,92.453
		c-6.672,5.719-3.812,22.873-3.812,22.873c0,26.689,0.002,41.936-12.389,59.096c-12.391,17.156-9.528,35.264-9.528,35.264
		l-0.954,15.252c0,0-72.438,55.281-75.297,55.281c-2.862,0-17.157,8.575-17.157,8.575l-19.066,8.579l-19.057,14.299l-12.391,25.734
		c0,0-12.39,5.719-12.39,16.203c0,10.48,20.016,24.779,20.016,24.779l-2.861,72.44c-14.299,17.156-23.828,40.981-23.828,40.981
		l-5.717,6.674c-16.207,5.724-2.861,20.017-2.861,20.017l8.579,11.437l8.575,12.391c15.253,48.607,60.05,56.233,60.05,56.233
		l6.672-3.811l6.672-5.717c15.25-10.483,33.356-1.908,33.356-1.908c12.391,21.92,29.551,28.597,29.551,28.597
		c27.638,30.499,52.418,27.638,52.418,27.638l14.299,1.906c0,0,0.954-9.532,7.625,6.675c6.672,16.201,47.66,46.7,47.66,46.7
		l8.575,6.672l55.283,33.36l10.486,3.811l16.201,4.766l27.643,3.814l16.209,6.672c42.897,63.861,49.564-20.97,49.564-20.97
		l1.907-3.812l8.575-13.344c20.016-27.645,57.188-6.673,57.188-6.673l19.063,6.673c0,0,8.575,6.673,18.108,11.438
		c9.535,4.771,32.408,20.016,32.408,20.016l43.844,0.955l2.861-1.903c0,0-0.954-3.817,1.908-5.718
		c2.856-1.909,16.201-23.828,16.201-23.828s7.627,1.903-2.861-2.861c-10.489-4.765-4.765-15.253-4.765-15.253l27.644-3.811
		l4.765-2.86c21.919-18.109,58.142,3.816,63.86,9.532c5.713,5.715,11.436,26.685,11.436,26.685c26.689,38.125,22.878,0,22.878,0
		c-10.487-19.063,5.718-35.265,5.718-35.265l18.11-16.201c24.781-20.017,23.832-44.797,23.832-44.797l3.811-33.361l37.172-20.966
		c0,0,12.391-8.58,28.597-20.969c16.201-12.393,22.874-33.363,22.874-33.363c10.482-7.618,16.201-27.647,16.201-27.647
		c38.131-41.94,5.723-71.481-17.155-86.733c-22.878-15.252-31.454-6.672-48.608-9.529c-1.441-0.241-2.798-0.507-4.083-0.796
		c-13.995-3.141-18.79-8.737-18.79-8.737c-8.581-20.012-44.798-49.563-44.798-49.563s-4.769-5.719-3.815-22.873
		c0.954-17.16-3.81-40.033-3.81-40.033l-8.581-26.689c-5.718-30.5-17.16-78.158-17.16-78.158
		c-3.806-55.281-23.828-62.908-23.828-62.908l-1.913-11.441c0,0-5.713,8.581,3.814-8.58c9.529-17.156,1.908-33.356,1.908-33.356
		s-4.764-7.626-3.815-25.735c0.954-18.108-17.155-35.269-19.063-41.941c-1.903-6.666-1.903-10.482-1.903-10.482l-7.626-12.39
		c0,0-1.902-4.765,2.861-9.529c4.765-4.771,9.529-30.5,9.529-30.5l8.581-30.499c0,0,14.744-13.126,45.243-64.597
		c30.505-51.469,92.751-34.657,92.751-34.657l8.785,5.843l-3.811,46.7c-31.458,37.171-45.752,103.894-45.752,103.894l-6.672,0.954
		l-2.861,3.811l10.487,20.971l20.971,93.406l11.437,39.077l6.667,10.484c1.903,43.844,15.253,54.332,15.253,54.332
		s6.672,21.92,36.217,49.563c29.545,27.637,30.499,40.028,30.499,40.028c5.718,28.597,42.895,32.406,42.895,32.406l9.529,3.813
		c51.471,36.216,62.912-13.346,62.912-13.346c16.201-35.265,47.655-32.403,47.655-32.403c61-0.952,33.356,44.799,33.356,44.799
		c-41.942,20.016-33.362,56.916-33.362,76.252c0,19.329,9.534,65.762,9.534,65.762l6.672,26.689c0,0,19.057,24.787,39.078,44.798
		c20.017,20.018,2.861,38.126,2.861,38.126l-2.861,15.252l-2.856,36.219l10.481,41.936l-10.481,24.786l13.338,29.545l7.626,21.927
		c-8.575,41.935-46.704,14.291-46.704,14.291s-2.856-8.575-5.718-20.965c-2.862-12.391-20.971-7.627-20.971-7.627
		s-8.575,6.85-16.201,16.377c-7.626,9.535-9.534-3.635-9.534-3.635h-13.344l10.488,16.025l0.953,27.556
		c0,0,0.949,17.11-5.719,29.502c-6.671,12.39-24.78-7.647-24.78-7.647s4.765-40.041-2.862-62.914
		c-7.625-22.879-28.597-1.914-28.597-1.914l0.954,75.296l-11.437,8.578l-10.483-13.346c0,0-12.39-12.391-14.297-18.109
		c-1.908-5.719-8.581-2.857-8.581-2.857l-4.765,12.393l-6.672,8.573l-3.816,19.063l5.724,20.972l-3.815,43.843l-5.719,21.926
		c0,0,0,46.7,2.862,76.251c2.862,29.544,11.437,49.561,17.155,56.229c5.718,6.672,20.965,15.253,37.171,14.297
		c16.201-0.953,26.689,13.347,26.689,13.347l4.764,13.343c0,0,3.811,6.674,17.155,20.017c13.349,13.346,14.298-12.391,14.298-12.391
		l3.816-18.113c0,0-3.816,18.113,0.948-16.202c4.765-34.313,45.752,6.673,45.752,6.673l41.938,42.892c0,0,2.862,7.626-1.908,12.39
		c-4.77,4.765-17.155-8.575-17.155-8.575s0,0-14.296-6.673c-14.298-6.676-20.017,10.484-20.017,10.484l7.626,45.751l13.345,12.391
		l8.58,9.529c0,0,2.857,6.672,2.857,24.78c0,18.114,9.531,44.798,9.531,44.798l10.482,12.396l4.771,18.108
		c0,0,2.856,3.641,11.437,31.279c8.575,27.641,63.865,56.063,63.865,56.063h25.735l13.345,10.658l-17.161,16.296l-8.575,13.388
		l-0.953,8.351l-14.299,9.308h-4.765l7.626,23.119l9.529,23.957c31.453,34.32-1.998,48.67-1.998,48.67l-28.689,28.658v84.832
		l8.673,9.528l5.766,96.27l-42.866,46.698l-10.476,11.439c0,0,0.006,27.642-0.949,32.406c-0.954,4.77-33.352,62.906-33.352,73.389
		c0,10.487,33.356,49.562,33.356,49.562s0,0,14.299,31.455c12.789,28.139-3.369,44.792-6.922,47.998
		c-1.353,0.558-7.71,3.77-30.249,15.86c-39.077,20.967-54.329,6.673-54.329,6.673l-18.108-14.293l-21.925-16.206l-86.733-55.28
		l-38.126-6.672l-40.982-40.034l-3.816-14.298l-25.734-23.822l-10.483-20.017l6.671-25.739l-7.625-27.639l-13.345-27.637
		l10.483-41.941l-1.908-25.735c25.735-13.345,21.924-77.207,21.924-77.207l-5.718-18.106l39.08-2.857
		c0,0,26.684-27.643,26.684-33.36c0-5.719,6.671-31.555-18.109-66.818c-24.782-35.27-38.121,15.148-38.121,15.148h-19.068
		l-23.827-1.809l-12.391-23.777c-16.201-6.666-15.251-23.809-15.251-23.809c6.671-29.545-21.919-33.343-21.919-33.343l-21.919-20.01
		l-22.879-4.761l-6.672-25.733l-16.206-44.798l-10.483-22.872l-13.344-10.493l-0.954-18.104c5.718-4.765,9.529-21.925,9.529-21.925
		l-4.764-29.551c-4.765-49.563,19.063-111.516,19.063-111.516l1.908-52.423l5.718-20.017l11.437-31.448l-0.955-41.941l-4.764-6.668
		c-20.011-23.831,4.764-54.331,4.764-54.331c51.47-79.107,3.816-129.425-14.292-139.905c-18.115-10.488-51.471-20.768-51.471-20.768
		h-23.832l-20.966,0.814l-10.493-6.814h-50.511l-5.723,7.558l5.723,19.036c0,0-6.678,9.514-16.206,9.514
		c-9.529,0-23.828-16.217-23.828-16.217l-4.764-29.548l-25.741-23.83l-18.104,0.954l-6.677,9.527l-5.713,21.924l-8.585,5.718
		l-5.718,23.834l-9.528,13.344l1.902,42.884c0,0-20.965-15.246,4.764,11.441c25.735,26.689,3.815,40.035,3.815,40.035
		s-7.626,8.573-28.596,29.541c-20.965,20.969-31.679-5.715-31.679-5.715l-7.858-19.062v-32.407
		c7-59.093-37.895-104.849-37.895-104.849l-26.572-14.294l-60.942-38.124l-20.941-7.628l-6.657-8.573l-14.289-5.725
		c-14.295-38.125-40.028-13.344-40.028-13.344l-16.204,5.723l-16.2,10.481l-5.718-15.251c0,0,13.345-2.856-3.813-31.452
		c-17.157-28.592-72.437-30.501-72.437-30.501l-22.874-14.293l-16.206-9.538c0,0-17.156-2.851-25.735-4.759
		c-8.581-1.909-8.575-9.535-11.437-24.781c-2.86-15.249-5.718-15.253-20.966-14.298c-15.253,0.952-29.551,18.106-42.895,21.918
		c-13.342,3.815-27.638,24.781-44.799,36.224c-17.155,11.437-54.326,20.963-54.326,20.963l-0.954,7.628
		c0,0,57.19,38.125,77.205,54.326c20.016,16.206,29.548,52.424,26.689,77.204c-2.856,24.781,14.298,50.519,14.298,50.519
		l39.08,38.131c0,0,38.126,25.729,46.701,29.551c56.203,25.01,97.222,9.527,97.222,9.527l4.764,42.892
		c0,0,44.798-1.904,48.608-1.904c3.816,0,23.828,10.482,23.828,10.482s80.067,88.642,94.36,98.171
		c14.299,9.534,94.365,91.504,94.365,91.504s5.718,0.955,4.765,11.438c-0.949,10.481-20.971,83.876-20.971,83.876
		c-39.08,64.815-170.608,75.299-170.608,75.299l-20.017-12.394c0,0-19.06-17.153-43.841-63.858c-24.78-46.706-54.332,0-54.332,0
		l-22.873,33.366c-59.096,84.83-99.125,89.594-99.125,89.594l-26.688,9.531c0,0-6.673,0.952-18.109,9.527
		c-11.437,8.58-6.123,5.719,6.267,15.253c12.391,9.534,46.301,47.653,46.301,47.653v21.926l8.028,11.436l8.777,12.391l4.871,13.345
		c61.952,74.344,49.612,114.378,49.612,114.378s-0.928,14.298-0.928,18.108c0,3.814,14.31,22.879,14.31,22.879
		c-4.77,21.919-0.948,33.356-0.948,33.356c13.344,29.548,11.44,80.065,11.44,80.065l-29.539,35.27
		c92.458,67.671,13.347,110.555,13.347,110.555l4.764,12.392c8.575,9.533,9.534,20.017,15.25,34.314
		c5.716,14.298,37.175,77.205,57.189,93.412c20.014,16.201,98.173,82.918,99.127,90.545c0.954,7.626-23.828-11.438,19.063,21.929
		c42.89,33.36,30.5,74.349,2.856,109.612c-27.637,35.27-21.922,108.659-21.922,108.659c12.39,22.873,6.675,38.135,6.675,38.135
		c-5.718,18.104-85.786,68.626-85.786,68.626l1.908,8.58c108.658,11.437,156.313,73.389,156.313,73.389s3.81-3.811,9.528,28.597
		c5.72,32.407,18.112,125.813,18.112,125.813s-5.715-51.454,4.767,18.124c10.483,69.579,34.31,79.107,49.562,86.734
		c15.253,7.625,51.47,44.803,51.47,44.803c33.368,48.608,15.252,85.786,15.252,85.786c44.798,35.263,14.294,77.199,14.294,77.199
		l-7.626,4.771c0,0-10.483-24.783,0.959,10.482c11.437,35.263,15.247,214.454,19.058,250.677
		c3.805,36.219-10.488,80.063-22.879,91.503c-12.39,11.437-70.528,52.425-82.918,51.47c-12.391-0.947-25.735,3.816-35.27,9.535
		c-9.531,5.719-117.232,40.039-123.906,40.039c-6.672,0-20.016,0-29.547,26.684c-9.531,26.688-31.457,49.562-45.749,49.562
		c-14.299,0-39.08-19.565-46.706-19.565c-7.621,0-21.924-5.216-46.706,23.382c-24.781,28.591-55.284,41.979-72.441,41.979
		c-17.155,0-64.812,13.379-64.812,13.379h-33.358l-4.771-5.758l-13.344,0.93l-0.954,29.54c-5.675,1.895-15.102,18.792-15.244,19.047
		c0.118-0.204,1.835-2.683-0.006,29.56c-1.905,33.361-56.576,38.119-56.576,38.119l-15.598,3.81v46.7
		c27,48.609,107.095,26.69,107.095,26.69c109.613,18.107,105.016,107.703,105.016,107.703l-185.772,196.342
		c0,0,1.946,14.298-4.721-9.53c-6.672-23.825-27.621-40.981-59.074-70.532c-13.08-12.288-31.943-23.29-50.666-32.198l-0.013,563.578
		h3039.136v-7409H830.192z M1534.415-2829.885c-7.897-8.81-15.098,1.098-22.672,0.842c-4.68-13.73-9.361-27.462-14.04-41.191
		c14.485-1.628,29.623-4.25,27.973,18.51c2.792-0.267,5.59-0.533,8.382-0.801c6.714-4.392,10.672-1.204,13.554,4.924
		c1.562,1.491,3.114,2.981,4.667,4.462C1559.464-2821.007,1543.752-2829.744,1534.415-2829.885z M2158.085,1360.437
		c-1,1.352-0.977,2.614-2.268,3.722c-1.619,3.74-3.167,7.483-4.78,11.226c-1.289,5.754-5.188,6.966-10.366,6.048
		c-2.613-1.073-4.966-2.394-5.13-5.691c1.572-3.783,11.146-5.413,3.19-11.757c-1.861-0.293-3.738-0.323-5.584-0.748
		c-5.42-2.407-10.69-6.112-16.761-1.641c-0.795,0.587-1.619,1.121-2.436,1.682c-4.199,4.659-7.846,4.983-10.34-3.224
		c-3.508,7.343-0.761,11.685,2.446,15.945c-0.057,2.482-1.318,4.209-3.379,5.44c-7.125,2.913-14.729,0.54-21.963,2.054
		c-3.432,0.735-7.018-1.262-10.377,0.593c-4.91,4.989-3.08,8.506,2.768,10.138c5.939,1.655,7.574,4.654,5.064,10.219
		c-2.238,4.947,2.18,9.692,0.629,14.655c-7.705-0.161-15.283-0.377-19.703,8.004c-1.084,2.05-3.4,3.521-6.559,2.008
		c-12.426-6.001-7.221,2.62-6.242,7.692c-4.533,0.101-9.061,0.195-13.6,0.301c0.016,0.021,0.041-0.159,0.059-0.14l-0.16-0.252
		c0.035,0,0.07,0,0.102,0c-1.604-2-5.793-2.479-4.482-6.602c-0.055-2.895,0.309-5.941-1.631-8.42
		c-8.941-11.433-11.498-24.233-13.498-37.479c0,0.021,0,0.043,0,0.063c0,3.17-1.764-16.107-4.77-13.555
		c-2.66-7.861-8.093-14.853-6.737-23.879c-1.447-6.111-2.606-12.291-6.192-17.638c-5.566-6.111-13.987-9.355-17.343-17.641
		c-4.498-3.006-8.946-3.093-13.397,0.104c-10.461,4.025-14.184,2.337-19.736-8.94c-8.92-11.747-8.452,4.852-13.593,4.501
		c-2.396,2.29-5.191,2.636-8.256,1.698c-11.857-10.499-27.295-11.646-41.631-15.002c-16.344-3.821-31.462-8.704-41.339-23.448
		c-5.02-3.967-10-7.978-12.332-14.272c-0.326-15.246-6.143-30.876,3.355-45.464c1.586-2.442,2.705-5.11,5.455-6.494
		c4.414-4.9,8.523-10.486,1.746-15.854c-1.074-2.092-1.043-4.188-0.033-6.274c6.584-4.449,1.59-12.253-1.555-16.836
		c-4.531-11.221-2.129-22.983-2.736-34.51c2.783-4.669-0.744-10.334,2.264-14.999c-1.115-14.392,2.219-28.313,5.561-41.999
		c1.92-7.871,0.367-13.627-2.996-20.547c-6.799-13.983-13.256-28.364-12.046-44.656c1.147-3.265,2.813-5.954,6.772-6.069
		c2.615,1.726,5.377,2.159,8.324,0.766c8.191,2.788,8.82,2.485,8.662-4.141c-3.303-1.976-7.42-0.729-10.676-2.776
		c-0.824-0.619-1.383-1.417-1.672-2.406c0.289-5.362,3.898-5.687,7.992-5.259c0.332,0.038,0.707,0.404,0.943,0.315
		c0.537-0.204,0.404-0.733-0.346-1.383c-1.387-4.195,1.992-7.895,0.969-11.982c-3.688-13.617-1.504-19.541,10.574-26.396
		c17.83-10.135,31.779-24.57,44.783-40.021c5.736-6.82,12.211-12.313,20.016-16.789c21.455-12.285,34.066-31.511,40.406-54.997
		c3.629-13.435,6.57-27.04,4.006-41.118c-0.166-1.034-0.203-2.076-0.154-3.119c1.621-5.934-2.951-10.272-4.041-15.509
		c-0.314-8.47-3.031-15.332-12.045-17.989c-3.078-1.551-4.938-3.893-4.838-7.493c0.063-0.101-0.1-0.757-0.352-1.643
		c-9.893-5.031-16.479-13.385-22.307-22.527c-0.631-2.714-0.521-5.485-0.693-8.243c-0.24-3.916-2.127,0.262-3.15-0.394
		c-14.523,0.036-23.846-8.884-32.611-18.796c-3.453-6.693-1.379-15.152-6.807-21.217c-17.879-15.557-19.967-37.186-22.236-58.588
		c-0.721-6.86,1.938-12.904,8.418-16.547c9.75-4.155,18.834-9.162,25.406-17.963c4.328-5.781,11.336-6.646,17.721-6.833
		c7.898-0.237,15.74-0.955,23.602-1.568c14.549,8.733,17.957,24.169,22.33,38.645c1.934,6.412,3.756,12.453,8.236,17.454
		c10.725,11.972,15.965,27.696,27.084,39.388c0.125,6.353,11.729,24.836,16.568,30.68c1.775,2.144,2.834,4.773,3.463,7.673
		c0.6,0.471,1.221,1.011,1.865,1.719c4.582-0.696,5.699,3.752,8.857,4.303c12.85,5.98,22.984,14.451,26.523,28.954
		c0.918,1.975,1.729,4.188,2.348,6.546c20.615,28.014,17.596,60.274,15.836,92.091c-0.379,6.818-0.213,12.746,2.844,18.885
		c7.715,15.455,11.572,31.936,11.852,49.231c-7.307,6.284-7.951,14.507-5.984,23.031c1.299,5.622-0.18,10.226-3.686,14.119
		c-17.338,19.257-28.836,42.886-46.428,61.912c-4.379,4.732-2.365,13.517-10.662,15.782c-2.941-1.941-6.703,3.154-10.035,6.399
		c-0.029,1.713,0.469,3.327,0.908,4.952c0.242,0.906,0.787,2.567,1.029,2.457c1.158-0.507,1.127-2.231,2.383-2.845
		c4.646,5.011,1.811,10.053,0.064,15.09c1.572,12.111-4.021,22.646-7.605,33.585c-1.529,4.677-5.566,6.494-10.24,6.931
		c-3.016,0.235-5.85,1.042-7.309,3.956c-5.303,10.626-7.314,22.737-15.439,32.192c-2.521,2.932,0.881,6.96,2.777,9.918
		c3.24,5.062,5.504,10.23,4.654,16.379c-0.545,3.93,0.855,7.148,3.758,9.738c5.094,4.539,7.768,10.403,9.377,16.871
		c1.211,15.943,12.229,27.806,24.277,37.345c3.508-1.562,6.852-0.197,10.236,0.556c0.977,0.321,1.887,0.776,2.764,1.297
		c7.908,6.618,13.916,14.002,15.949,24.89c1.457,7.762,4.057,15.797,9.182,22.38c0.961,0.079,1.883,0.258,2.801,0.481
		c4.418,1.401,6.395,5.479,9.338,8.497c3.613,2.72,5.168,6.672,6.441,10.787c0.652,7.344,10.369,1.409,11.592,7.926
		c4.99,17.862,19.738,21.625,35.203,24.341c5.76,1.514,11.404,3.023,17.162,4.538c16.729,4.34,22.33,10.157,24.33,24.309V1360.437z"
		/>
	<path fill="#F9EDCF" stroke="#929497" stroke-width="3" stroke-miterlimit="10" d="M-207.683-2238.523l0.631-707.766h78.457
		c30.525,10,52.386,29.733,71.551,53.863c19.942,8.954,39.19,20.284,62.263,18.78c17.132-1.115,33.107,1.688,47.397,12.039
		c6.946,5.023,15.445,5.96,23.805,6.905c8.406,1.58,18.675-1.982,23.775,8.61c5.76,10.208,5.206,24.269,18.313,30.033
		c28.003,8.111,58.703,4.725,84.811,21.558c16.914,10.904,36.208,15.187,56.436,10.421c8.325-1.961,12.555-0.214,13.844,9.003
		c1.789,12.764,11.046,23.186,12.447,36.2c9.382,18.836,3.417,38.747,3.989,58.215c1.771,60.409,10.319,120.461,9.529,181.013
		c0.745,5.928,3.025,11.478,4.202,17.295c1.562,6.617,3.936,12.934,6.986,18.992c6.978,12.644,14.896,24.627,24.454,35.448
		c9.221,8.335,13.923,20.621,24.287,27.92c4.213,3.029,8.873,4.003,13.663,4.313c-8.954,2.603-11.214,8.917-5.9,19.331
		c5.787,11.127,14.356,20.273,24.707,26.333c16.659,9.743,22.57,23.413,21.276,41.78c-0.584,8.303-0.231,16.699,0.543,25.068
		c1.05,8.637,4.765,15.866,13.015,19.014c12.773,4.89,7.122,11.376,2.423,18.09c0.124,30.751-0.304,61.509,3.065,92.212
		c3.734,34.035-0.522,67.465-9.771,100.349c-1.169,2.119-2.15,4.31-2.846,6.647c-2.601,14.241-9.382,26.791-15.914,39.417
		c-7.268,14.047-14.299,28.105-13.129,44.631c-0.081,7.341,0.696,14.774-2.204,21.825c-1.485,3.916-3.601,7.499-5.88,10.982
		c-5.417,8.268-11.765,15.629-20.201,21.067c-35.762,23.047-58.96,57.114-80.719,92.368c-9.042,25.442-10.453,50.063-3.966,77.497
		c7.035,29.735,7.254,61.661-8.958,90.534c-2.035,2.508-3.954,5.069-5.747,7.745c-3.784,5.05-6.211,12.144-14.798,9.976
		c-9.423-2.444-19.188-3.327-28.57-6.371c-26.611-8.627-47.816-22.405-52.425-52.725c-2.637-17.345,6.674-32.372,9.788-48.846
		c0.776,5.157,1.808,10.355,8.485,11.429c11.261-6.883,16.98-18.323,23.655-28.949c5.639-15.177,20.379-28.486,9.516-46.997
		c-2.017-1.48-4.233-2.56-6.66-3.168c-35.995,1.22-68.358,18.163-103.317,23.806c-12.549,8.166-15.311,21.834-20.022,34.585
		c-11.304,30.604-36.449,49.779-63.194,43.988c-19.821-4.283-40.009-7.709-59.563-13.709c-2.147-0.723-5.551-1.951-5.242-3.481
		c4.715-23.323-8.891-39.147-22.141-55.137c-9.48-11.493-18.39-23.471-29.168-33.853c-5.323-5.408-10.868-10.593-16.097-16.097
		c-33.452-35.182-35.628-87.79-5.265-124.864c2.592-3.952,4.97-8.039,6.892-12.367c10.508-24.764,11.703-50.546,8.285-76.829
		c-9.494-35.107-21.388-69.409-35.708-102.75c-14.33-33.365-33.142-65.447-58.719-90.187"/>
</g>
<g id="indicators">
	<circle fill="#FF0000" cx="583.887" cy="139.032" r="7.756"/>
	<circle fill="#FF0000" cx="511.887" cy="949.032" r="7.756"/>
	<circle fill="#FF0000" cx="1286.887" cy="918.032" r="7.756"/>
</g>
<g id="Layer_26">
	<text transform="matrix(1 0 0 1 1230.6899 836.2534)"><tspan x="0" y="0" fill="#FFFFFF" font-family="'MyriadPro-Bold'" font-size="36">Bellevue</tspan><tspan x="14.832" y="43.2" fill="#FFFFFF" font-family="'MyriadPro-Bold'" font-size="36">Square</tspan></text>
	<text transform="matrix(1 0 0 1 596.6382 139.0317)" fill="#FFFFFF" font-family="'MyriadPro-Bold'" font-size="36">NorthGate</text>
	<text transform="matrix(1 0 0 1 528.8579 925.7876)" fill="#FFFFFF" font-family="'MyriadPro-Bold'" font-size="36">Westlake</text>
	<circle fill="#FFFFFF" stroke="#FFFFFF" stroke-width="4" stroke-miterlimit="10" cx="665.414" cy="555.456" r="7.06"/>
	<circle fill="#FFFFFF" stroke="#FFFFFF" stroke-width="4" stroke-miterlimit="10" cx="626.414" cy="584.456" r="7.06"/>
	<circle fill="#FFFFFF" stroke="#FFFFFF" stroke-width="4" stroke-miterlimit="10" cx="625.414" cy="547.456" r="7.06"/>
	<circle fill="#FFFFFF" stroke="#FFFFFF" stroke-width="4" stroke-miterlimit="10" cx="675.414" cy="586.456" r="7.06"/>
	<circle fill="#FFFFFF" stroke="#FFFFFF" stroke-width="4" stroke-miterlimit="10" cx="706.414" cy="629.456" r="7.06" onclick="notify()"/>
</g>
<g id="campus" >
	
		<ellipse opacity="0.3" fill="#FF0000" stroke="#FFFFFF" stroke-width="8" stroke-miterlimit="10" cx="672.474" cy="512.734" rx="112.346" ry="115.203" onmouseover="dude(evt)" onmouseout="dude2(evt)"/>
</g>
<g id="_x32_71">
	<polyline fill="none" stroke="#000000" stroke-width="4" stroke-miterlimit="10" points="661.585,562.21 661.585,592.21 
		701.585,632.025 701.585,668.21 835.585,668.21 921.446,754.21 1165.585,754.21 1165.585,878.21 1203.298,916.21 1286.585,916.21 	
		"
		
		onmouseover="dude(evt)" onmouseout="dude2(evt)"/>
</g>
<g id="_x32_43">
	<polyline fill="none" stroke="#000000" stroke-width="4" stroke-miterlimit="10" points="1284.484,915.933 1318.031,882.492 
		1286.585,851.216 1286.585,671.21 1229.585,671.21 1160.316,740.21 926.585,740.21 841.454,655.21 712.585,655.21 712.585,630.21 	
		"
		
		onmouseover="dude(evt)" onmouseout="dude2(evt)"/>
</g>
<g id="_x37_5">
	<polyline fill="none" stroke="#000000" stroke-width="4" stroke-miterlimit="10" points="673.795,590.466 681.664,598.21 
		698.585,598.21 765.866,531.21 810.585,531.21 947.585,393.716 947.585,280.21 863.585,196.595 863.585,85.21 791.173,13.21 
		759.585,13.21 659.421,113.21 604.585,113.21 580.085,137.71 	"
		
		onmouseover="dude(evt)" onmouseout="dude2(evt)"/>
</g>
<g id="_x37_0x">
	<polyline fill="none" stroke="#000000" stroke-width="4" stroke-miterlimit="10" points="511.429,941.339 583.585,869.341 
		583.585,760.21 599.585,744.21 599.585,610.583 624.585,586.05 	"
		
		onmouseover="dude(evt)" onmouseout="dude2(evt)"/>
</g>
<g id="_x36_6">
	<polyline fill="none" stroke="#000000" stroke-width="4" stroke-miterlimit="10" points="579.585,139.21 579.585,186.21 
		626.585,233.71 626.585,571.21 585.585,611.9 585.585,747.21 570.585,762.13 570.585,867.21 509.585,928.37 509.585,945.21 	"
		
		onmouseover="dude(evt)" onmouseout="dude2(evt)"/>
</g>
<g id="_x36_8">
	<polyline fill="none" stroke="#000000" stroke-width="4" stroke-miterlimit="10" points="673.585,588.21 698.585,588.21 
		734.585,552.117 734.585,319.21 586.585,170.812 586.585,139.21 	"
		
		onmouseover="dude(evt)" onmouseout="dude2(evt)"/>
</g>
<g id="_x34_9">
	<polyline fill="none" stroke="#000000" stroke-width="4" stroke-miterlimit="10" points="511.877,949.306 584.926,876.21 
		608.585,876.21 608.585,615.21 662.627,561.168 	"
		
		onmouseover="dude(evt)" onmouseout="dude2(evt)"/>
</g>
<g id="_x34_3">
	<polyline fill="none" stroke="#000000" stroke-width="4" stroke-miterlimit="10" points="661.585,592.21 661.585,603.21 
		692.585,634.21 692.585,885.21 583.528,885.21 515.653,952.806 	"
		onmouseover="dude(evt)" onmouseout="dude2(evt)"
/>
</g>
<g id="Layer_13">
	<text transform="matrix(1 0 0 1 43.9194 875.729)" font-family="'MyriadPro-Bold'" font-size="36">Filter:</text>
	<text transform="matrix(1 0 0 1 12.1719 925.7876)" font-family="'MyriadPro-Bold'" font-size="36" onclick="change()">Bellevue Only</text>
</g>

 <script type="text/ecmascript">
    <![CDATA[
      function dude(evt) {
        evt.target.setAttributeNS(null, "stroke", "#FF0000");
		
      }
	function notify() {
		alert("Stop Location: Med Center");
	}
      function dude2(evt) {
        evt.target.setAttributeNS(null, "stroke", "#000000");
      }
	  
	  function change() {
	  document.getElementById("_x34_3").setAttributeNS(null, "opacity", "0");
	  
	  document.getElementById("_x36_8").setAttributeNS(null, "opacity", "0");
	  
	  document.getElementById("_x37_5").setAttributeNS(null, "opacity", "0");
	  
	  document.getElementById("_x37_0x").setAttributeNS(null, "opacity", "0");
	  
	  document.getElementById("_x34_9").setAttributeNS(null, "opacity", "0");
	  
	  document.getElementById("_x36_6").setAttributeNS(null, "opacity", "0");
	  
	  document.getElementById("_x37_5").setAttributeNS(null, "opacity", "0");
	  }
    ]]>

  </script>
</svg>

